<mxfile host="app.diagrams.net" agent="Mozilla/5.0 (Windows NT 10.0; Win64; x64) AppleWebKit/537.36 (KHTML, like Gecko) Chrome/133.0.0.0 Safari/537.36" version="26.0.16">
  <diagram name="Page-1" id="DoUWw83M7309mh9TTBLG">
    <mxGraphModel dx="3430" dy="2214" grid="1" gridSize="10" guides="1" tooltips="1" connect="1" arrows="1" fold="1" page="1" pageScale="1" pageWidth="850" pageHeight="1100" math="0" shadow="0">
      <root>
        <mxCell id="0" />
        <mxCell id="1" parent="0" />
        <mxCell id="TDCMUz0HnnAJUCMYkKip-66" value="" style="rounded=0;whiteSpace=wrap;html=1;" parent="1" vertex="1">
          <mxGeometry x="-480" y="-570" width="680" height="400" as="geometry" />
        </mxCell>
        <mxCell id="TDCMUz0HnnAJUCMYkKip-1" value="Actor" style="shape=umlActor;verticalLabelPosition=bottom;verticalAlign=top;html=1;outlineConnect=0;" parent="1" vertex="1">
          <mxGeometry x="-550" y="-370" width="30" height="60" as="geometry" />
        </mxCell>
        <mxCell id="TDCMUz0HnnAJUCMYkKip-2" value="Election&lt;br&gt;Sentiment" style="ellipse;whiteSpace=wrap;html=1;" parent="1" vertex="1">
          <mxGeometry x="-440" y="-470" width="130" height="50" as="geometry" />
        </mxCell>
        <mxCell id="TDCMUz0HnnAJUCMYkKip-3" value="Influential Leader&lt;br&gt;Sentiment" style="ellipse;whiteSpace=wrap;html=1;" parent="1" vertex="1">
          <mxGeometry x="-430" y="-290" width="130" height="50" as="geometry" />
        </mxCell>
        <mxCell id="TDCMUz0HnnAJUCMYkKip-4" value="Predict Election&lt;br&gt;Result" style="ellipse;whiteSpace=wrap;html=1;" parent="1" vertex="1">
          <mxGeometry x="-220" y="-550" width="110" height="60" as="geometry" />
        </mxCell>
        <mxCell id="TDCMUz0HnnAJUCMYkKip-5" value="Display Analysis&lt;br&gt;Result" style="ellipse;whiteSpace=wrap;html=1;" parent="1" vertex="1">
          <mxGeometry x="-210" y="-430" width="110" height="60" as="geometry" />
        </mxCell>
        <mxCell id="TDCMUz0HnnAJUCMYkKip-6" value="Show Rankings" style="ellipse;whiteSpace=wrap;html=1;direction=east;" parent="1" vertex="1">
          <mxGeometry x="-200" y="-260" width="110" height="60" as="geometry" />
        </mxCell>
        <mxCell id="TDCMUz0HnnAJUCMYkKip-7" value="Actor" style="shape=umlActor;verticalLabelPosition=bottom;verticalAlign=top;html=1;outlineConnect=0;" parent="1" vertex="1">
          <mxGeometry x="240" y="-550" width="30" height="60" as="geometry" />
        </mxCell>
        <mxCell id="TDCMUz0HnnAJUCMYkKip-8" value="Actor" style="shape=umlActor;verticalLabelPosition=bottom;verticalAlign=top;html=1;outlineConnect=0;" parent="1" vertex="1">
          <mxGeometry x="250" y="-280" width="30" height="60" as="geometry" />
        </mxCell>
        <mxCell id="TDCMUz0HnnAJUCMYkKip-9" value="Sentiment Analysis&lt;br&gt;Result" style="ellipse;whiteSpace=wrap;html=1;" parent="1" vertex="1">
          <mxGeometry x="-40" y="-545" width="100" height="50" as="geometry" />
        </mxCell>
        <mxCell id="TDCMUz0HnnAJUCMYkKip-10" value="Load Tranined&lt;br&gt;Model" style="ellipse;whiteSpace=wrap;html=1;" parent="1" vertex="1">
          <mxGeometry x="-40" y="-470" width="100" height="50" as="geometry" />
        </mxCell>
        <mxCell id="TDCMUz0HnnAJUCMYkKip-11" value="Perform Sentiment&lt;br&gt;Analysis" style="ellipse;whiteSpace=wrap;html=1;" parent="1" vertex="1">
          <mxGeometry x="-30" y="-380" width="100" height="50" as="geometry" />
        </mxCell>
        <mxCell id="TDCMUz0HnnAJUCMYkKip-12" value="Retrieve Tweets" style="ellipse;whiteSpace=wrap;html=1;" parent="1" vertex="1">
          <mxGeometry x="70" y="-265" width="100" height="50" as="geometry" />
        </mxCell>
        <mxCell id="TDCMUz0HnnAJUCMYkKip-16" value="" style="endArrow=classic;html=1;rounded=0;" parent="1" source="TDCMUz0HnnAJUCMYkKip-1" edge="1">
          <mxGeometry width="50" height="50" relative="1" as="geometry">
            <mxPoint x="-480" y="-380" as="sourcePoint" />
            <mxPoint x="-430" y="-430" as="targetPoint" />
          </mxGeometry>
        </mxCell>
        <mxCell id="TDCMUz0HnnAJUCMYkKip-18" value="" style="endArrow=classic;html=1;rounded=0;entryX=0;entryY=0.5;entryDx=0;entryDy=0;" parent="1" target="TDCMUz0HnnAJUCMYkKip-3" edge="1">
          <mxGeometry width="50" height="50" relative="1" as="geometry">
            <mxPoint x="-530" y="-330" as="sourcePoint" />
            <mxPoint x="-480" y="-380" as="targetPoint" />
          </mxGeometry>
        </mxCell>
        <mxCell id="TDCMUz0HnnAJUCMYkKip-22" value="" style="endArrow=classic;html=1;rounded=0;exitX=0;exitY=0.333;exitDx=0;exitDy=0;exitPerimeter=0;dashed=1;entryX=1;entryY=1;entryDx=0;entryDy=0;" parent="1" source="TDCMUz0HnnAJUCMYkKip-5" target="TDCMUz0HnnAJUCMYkKip-2" edge="1">
          <mxGeometry width="50" height="50" relative="1" as="geometry">
            <mxPoint x="-310" y="-440" as="sourcePoint" />
            <mxPoint x="-330" y="-370" as="targetPoint" />
          </mxGeometry>
        </mxCell>
        <mxCell id="TDCMUz0HnnAJUCMYkKip-25" value="" style="endArrow=classic;html=1;rounded=0;dashed=1;exitX=0;exitY=0.5;exitDx=0;exitDy=0;entryX=1.015;entryY=0.676;entryDx=0;entryDy=0;entryPerimeter=0;" parent="1" source="TDCMUz0HnnAJUCMYkKip-6" target="TDCMUz0HnnAJUCMYkKip-3" edge="1">
          <mxGeometry width="50" height="50" relative="1" as="geometry">
            <mxPoint x="-300" y="-260" as="sourcePoint" />
            <mxPoint x="-290" y="-180" as="targetPoint" />
          </mxGeometry>
        </mxCell>
        <mxCell id="TDCMUz0HnnAJUCMYkKip-28" value="" style="endArrow=classic;html=1;rounded=0;entryX=1;entryY=0.5;entryDx=0;entryDy=0;" parent="1" source="TDCMUz0HnnAJUCMYkKip-8" target="TDCMUz0HnnAJUCMYkKip-12" edge="1">
          <mxGeometry width="50" height="50" relative="1" as="geometry">
            <mxPoint x="130" y="-200" as="sourcePoint" />
            <mxPoint x="180" y="-250" as="targetPoint" />
          </mxGeometry>
        </mxCell>
        <mxCell id="TDCMUz0HnnAJUCMYkKip-29" value="" style="endArrow=classic;html=1;rounded=0;exitX=1;exitY=1;exitDx=0;exitDy=0;entryX=0.224;entryY=0.008;entryDx=0;entryDy=0;entryPerimeter=0;dashed=1;" parent="1" source="TDCMUz0HnnAJUCMYkKip-11" target="TDCMUz0HnnAJUCMYkKip-12" edge="1">
          <mxGeometry width="50" height="50" relative="1" as="geometry">
            <mxPoint x="40" y="-230" as="sourcePoint" />
            <mxPoint x="90" y="-280" as="targetPoint" />
          </mxGeometry>
        </mxCell>
        <mxCell id="TDCMUz0HnnAJUCMYkKip-31" value="" style="endArrow=classic;html=1;rounded=0;entryX=1;entryY=0.5;entryDx=0;entryDy=0;" parent="1" source="TDCMUz0HnnAJUCMYkKip-7" target="TDCMUz0HnnAJUCMYkKip-10" edge="1">
          <mxGeometry width="50" height="50" relative="1" as="geometry">
            <mxPoint x="150" y="-400" as="sourcePoint" />
            <mxPoint x="200" y="-450" as="targetPoint" />
          </mxGeometry>
        </mxCell>
        <mxCell id="TDCMUz0HnnAJUCMYkKip-37" value="" style="endArrow=classic;html=1;rounded=0;entryX=1;entryY=0.5;entryDx=0;entryDy=0;" parent="1" source="TDCMUz0HnnAJUCMYkKip-7" target="TDCMUz0HnnAJUCMYkKip-9" edge="1">
          <mxGeometry width="50" height="50" relative="1" as="geometry">
            <mxPoint x="50" y="-470" as="sourcePoint" />
            <mxPoint x="100" y="-520" as="targetPoint" />
          </mxGeometry>
        </mxCell>
        <mxCell id="TDCMUz0HnnAJUCMYkKip-40" value="" style="endArrow=classic;html=1;rounded=0;" parent="1" source="TDCMUz0HnnAJUCMYkKip-7" edge="1">
          <mxGeometry width="50" height="50" relative="1" as="geometry">
            <mxPoint x="20" y="-300" as="sourcePoint" />
            <mxPoint x="70" y="-350" as="targetPoint" />
          </mxGeometry>
        </mxCell>
        <mxCell id="TDCMUz0HnnAJUCMYkKip-42" value="User" style="text;html=1;align=center;verticalAlign=middle;resizable=0;points=[];autosize=1;strokeColor=none;fillColor=none;" parent="1" vertex="1">
          <mxGeometry x="-560" y="-290" width="50" height="30" as="geometry" />
        </mxCell>
        <mxCell id="TDCMUz0HnnAJUCMYkKip-43" value="System" style="text;html=1;align=center;verticalAlign=middle;resizable=0;points=[];autosize=1;strokeColor=none;fillColor=none;" parent="1" vertex="1">
          <mxGeometry x="225" y="-460" width="60" height="30" as="geometry" />
        </mxCell>
        <mxCell id="TDCMUz0HnnAJUCMYkKip-46" value="Twitter&amp;nbsp;&lt;br&gt;Data" style="text;html=1;align=center;verticalAlign=middle;resizable=0;points=[];autosize=1;strokeColor=none;fillColor=none;" parent="1" vertex="1">
          <mxGeometry x="235" y="-200" width="60" height="40" as="geometry" />
        </mxCell>
        <mxCell id="TDCMUz0HnnAJUCMYkKip-60" value="" style="endArrow=classic;html=1;rounded=0;exitX=0;exitY=0.5;exitDx=0;exitDy=0;dashed=1;" parent="1" source="TDCMUz0HnnAJUCMYkKip-4" target="TDCMUz0HnnAJUCMYkKip-2" edge="1">
          <mxGeometry width="50" height="50" relative="1" as="geometry">
            <mxPoint x="-170" y="-340" as="sourcePoint" />
            <mxPoint x="-120" y="-390" as="targetPoint" />
          </mxGeometry>
        </mxCell>
        <mxCell id="TDCMUz0HnnAJUCMYkKip-61" value="&lt;font style=&quot;font-size: 14px;&quot;&gt;&amp;lt;&amp;lt;extend&amp;gt;&amp;gt;&lt;/font&gt;" style="text;html=1;align=center;verticalAlign=middle;resizable=0;points=[];autosize=1;strokeColor=none;fillColor=none;rotation=-30;" parent="1" vertex="1">
          <mxGeometry x="-320" y="-520" width="100" height="30" as="geometry" />
        </mxCell>
        <mxCell id="TDCMUz0HnnAJUCMYkKip-62" value="&lt;font style=&quot;font-size: 14px;&quot;&gt;&amp;lt;&amp;lt;extend&amp;gt;&amp;gt;&lt;/font&gt;" style="text;html=1;align=center;verticalAlign=middle;resizable=0;points=[];autosize=1;strokeColor=none;fillColor=none;rotation=15;" parent="1" vertex="1">
          <mxGeometry x="-320" y="-420" width="100" height="30" as="geometry" />
        </mxCell>
        <mxCell id="TDCMUz0HnnAJUCMYkKip-63" value="&lt;font style=&quot;font-size: 14px;&quot;&gt;&amp;lt;&amp;lt;extend&amp;gt;&amp;gt;&lt;/font&gt;" style="text;html=1;align=center;verticalAlign=middle;resizable=0;points=[];autosize=1;strokeColor=none;fillColor=none;rotation=15;" parent="1" vertex="1">
          <mxGeometry x="-300" y="-245" width="100" height="30" as="geometry" />
        </mxCell>
        <mxCell id="TDCMUz0HnnAJUCMYkKip-64" value="&lt;span style=&quot;font-size: 14px;&quot;&gt;&amp;lt;&amp;lt;include&amp;gt;&amp;gt;&lt;/span&gt;" style="text;html=1;align=center;verticalAlign=middle;resizable=0;points=[];autosize=1;strokeColor=none;fillColor=none;rotation=60;" parent="1" vertex="1">
          <mxGeometry x="10" y="-310" width="100" height="30" as="geometry" />
        </mxCell>
        <mxCell id="TDCMUz0HnnAJUCMYkKip-69" value="&lt;font style=&quot;&quot;&gt;&lt;font style=&quot;font-size: 37px;&quot;&gt;&lt;br&gt;Use Case Diagram&lt;br&gt;&lt;br&gt;&lt;/font&gt;&lt;br&gt;&lt;/font&gt;" style="text;html=1;align=center;verticalAlign=middle;resizable=0;points=[];autosize=1;strokeColor=none;fillColor=none;" parent="1" vertex="1">
          <mxGeometry x="-325" y="-720" width="340" height="160" as="geometry" />
        </mxCell>
        <mxCell id="6iokY7xrfuskaPG3-T_G-1" value="" style="rounded=0;whiteSpace=wrap;html=1;" parent="1" vertex="1">
          <mxGeometry x="-310" y="550" width="450" height="30" as="geometry" />
        </mxCell>
        <mxCell id="6iokY7xrfuskaPG3-T_G-2" value="" style="rounded=0;whiteSpace=wrap;html=1;" parent="1" vertex="1">
          <mxGeometry x="-530" y="570" width="810" height="290" as="geometry" />
        </mxCell>
        <mxCell id="6iokY7xrfuskaPG3-T_G-3" value="" style="rounded=0;whiteSpace=wrap;html=1;" parent="1" vertex="1">
          <mxGeometry x="-530" y="270" width="810" height="270" as="geometry" />
        </mxCell>
        <mxCell id="6iokY7xrfuskaPG3-T_G-4" value="Dashboard Frontend" style="shape=umlLifeline;perimeter=lifelinePerimeter;whiteSpace=wrap;html=1;container=1;collapsible=0;recursiveResize=0;outlineConnect=0;rounded=1;shadow=0;comic=0;labelBackgroundColor=none;strokeWidth=1;fontFamily=Verdana;fontSize=12;align=center;" parent="1" vertex="1">
          <mxGeometry x="-410" y="190" width="100" height="650" as="geometry" />
        </mxCell>
        <mxCell id="6iokY7xrfuskaPG3-T_G-5" value="" style="html=1;points=[];perimeter=orthogonalPerimeter;rounded=0;shadow=0;comic=0;labelBackgroundColor=none;strokeWidth=1;fontFamily=Verdana;fontSize=12;align=center;" parent="6iokY7xrfuskaPG3-T_G-4" vertex="1">
          <mxGeometry x="45" y="130" width="10" height="210" as="geometry" />
        </mxCell>
        <mxCell id="6iokY7xrfuskaPG3-T_G-6" value="" style="html=1;verticalAlign=bottom;endArrow=block;labelBackgroundColor=none;fontFamily=Verdana;fontSize=12;edgeStyle=elbowEdgeStyle;elbow=vertical;" parent="6iokY7xrfuskaPG3-T_G-4" target="6iokY7xrfuskaPG3-T_G-11" edge="1">
          <mxGeometry relative="1" as="geometry">
            <mxPoint x="55" y="150.27999999999997" as="sourcePoint" />
            <mxPoint x="190" y="150.14" as="targetPoint" />
          </mxGeometry>
        </mxCell>
        <mxCell id="6iokY7xrfuskaPG3-T_G-7" value="&lt;font style=&quot;font-size: 11px;&quot;&gt;Get Prediction Data&lt;/font&gt;" style="edgeLabel;html=1;align=center;verticalAlign=middle;resizable=0;points=[];" parent="6iokY7xrfuskaPG3-T_G-6" vertex="1" connectable="0">
          <mxGeometry x="-0.0491" y="3" relative="1" as="geometry">
            <mxPoint x="-1" y="-7" as="offset" />
          </mxGeometry>
        </mxCell>
        <mxCell id="6iokY7xrfuskaPG3-T_G-8" value="Display Prediction results" style="html=1;verticalAlign=bottom;endArrow=open;dashed=1;endSize=8;curved=0;rounded=0;" parent="6iokY7xrfuskaPG3-T_G-4" edge="1">
          <mxGeometry relative="1" as="geometry">
            <mxPoint x="45" y="330" as="sourcePoint" />
            <mxPoint x="-85" y="330" as="targetPoint" />
          </mxGeometry>
        </mxCell>
        <mxCell id="6iokY7xrfuskaPG3-T_G-9" value="" style="html=1;points=[];perimeter=orthogonalPerimeter;rounded=0;shadow=0;comic=0;labelBackgroundColor=none;strokeWidth=1;fontFamily=Verdana;fontSize=12;align=center;" parent="6iokY7xrfuskaPG3-T_G-4" vertex="1">
          <mxGeometry x="45" y="410" width="10" height="230" as="geometry" />
        </mxCell>
        <mxCell id="6iokY7xrfuskaPG3-T_G-10" value="" style="endArrow=classic;html=1;rounded=0;exitX=0.568;exitY=0.793;exitDx=0;exitDy=0;exitPerimeter=0;dashed=1;" parent="6iokY7xrfuskaPG3-T_G-4" source="6iokY7xrfuskaPG3-T_G-2" edge="1">
          <mxGeometry width="50" height="50" relative="1" as="geometry">
            <mxPoint x="10" y="660" as="sourcePoint" />
            <mxPoint x="60" y="610" as="targetPoint" />
          </mxGeometry>
        </mxCell>
        <mxCell id="6iokY7xrfuskaPG3-T_G-11" value="Election Predictor" style="shape=umlLifeline;perimeter=lifelinePerimeter;whiteSpace=wrap;html=1;container=1;collapsible=0;recursiveResize=0;outlineConnect=0;rounded=1;shadow=0;comic=0;labelBackgroundColor=none;strokeWidth=1;fontFamily=Verdana;fontSize=12;align=center;" parent="1" vertex="1">
          <mxGeometry x="-250" y="190" width="100" height="620" as="geometry" />
        </mxCell>
        <mxCell id="6iokY7xrfuskaPG3-T_G-12" value="" style="html=1;points=[];perimeter=orthogonalPerimeter;rounded=0;shadow=0;comic=0;labelBackgroundColor=none;strokeWidth=1;fontFamily=Verdana;fontSize=12;align=center;" parent="6iokY7xrfuskaPG3-T_G-11" vertex="1">
          <mxGeometry x="45" y="150" width="10" height="170" as="geometry" />
        </mxCell>
        <mxCell id="6iokY7xrfuskaPG3-T_G-13" value="Analysis results" style="html=1;verticalAlign=bottom;endArrow=open;dashed=1;endSize=8;curved=0;rounded=0;" parent="6iokY7xrfuskaPG3-T_G-11" edge="1">
          <mxGeometry relative="1" as="geometry">
            <mxPoint x="329.5" y="281.9999999999999" as="sourcePoint" />
            <mxPoint x="55" y="282" as="targetPoint" />
          </mxGeometry>
        </mxCell>
        <mxCell id="6iokY7xrfuskaPG3-T_G-14" value="" style="endArrow=classic;html=1;rounded=0;entryX=0.568;entryY=0.345;entryDx=0;entryDy=0;entryPerimeter=0;exitX=1.111;exitY=0.315;exitDx=0;exitDy=0;exitPerimeter=0;" parent="6iokY7xrfuskaPG3-T_G-11" edge="1">
          <mxGeometry width="50" height="50" relative="1" as="geometry">
            <mxPoint x="-103.8900000000001" y="440" as="sourcePoint" />
            <mxPoint x="180.0799999999997" y="440.75" as="targetPoint" />
          </mxGeometry>
        </mxCell>
        <mxCell id="6iokY7xrfuskaPG3-T_G-15" value="Influencial Leader Ranking" style="shape=umlLifeline;perimeter=lifelinePerimeter;whiteSpace=wrap;html=1;container=1;collapsible=0;recursiveResize=0;outlineConnect=0;rounded=1;shadow=0;comic=0;labelBackgroundColor=none;strokeWidth=1;fontFamily=Verdana;fontSize=12;align=center;" parent="1" vertex="1">
          <mxGeometry x="-110" y="190" width="115" height="650" as="geometry" />
        </mxCell>
        <mxCell id="6iokY7xrfuskaPG3-T_G-16" value="" style="html=1;verticalAlign=bottom;endArrow=block;labelBackgroundColor=none;fontFamily=Verdana;fontSize=12;edgeStyle=elbowEdgeStyle;elbow=vertical;" parent="6iokY7xrfuskaPG3-T_G-15" target="6iokY7xrfuskaPG3-T_G-22" edge="1">
          <mxGeometry relative="1" as="geometry">
            <mxPoint x="-85" y="190" as="sourcePoint" />
            <mxPoint x="70" y="169.43" as="targetPoint" />
            <Array as="points">
              <mxPoint x="-40" y="190" />
            </Array>
          </mxGeometry>
        </mxCell>
        <mxCell id="6iokY7xrfuskaPG3-T_G-17" value="&lt;font style=&quot;font-size: 11px;&quot;&gt;Analyze sentiment&lt;/font&gt;" style="edgeLabel;html=1;align=center;verticalAlign=middle;resizable=0;points=[];" parent="6iokY7xrfuskaPG3-T_G-16" vertex="1" connectable="0">
          <mxGeometry x="-0.0491" y="3" relative="1" as="geometry">
            <mxPoint x="-1" y="-8" as="offset" />
          </mxGeometry>
        </mxCell>
        <mxCell id="6iokY7xrfuskaPG3-T_G-18" value="" style="html=1;points=[];perimeter=orthogonalPerimeter;rounded=0;shadow=0;comic=0;labelBackgroundColor=none;strokeWidth=1;fontFamily=Verdana;fontSize=12;align=center;" parent="6iokY7xrfuskaPG3-T_G-15" vertex="1">
          <mxGeometry x="45" y="440" width="10" height="170" as="geometry" />
        </mxCell>
        <mxCell id="6iokY7xrfuskaPG3-T_G-19" value="" style="endArrow=classic;html=1;rounded=0;exitX=1.156;exitY=0.137;exitDx=0;exitDy=0;exitPerimeter=0;" parent="6iokY7xrfuskaPG3-T_G-15" source="6iokY7xrfuskaPG3-T_G-18" edge="1">
          <mxGeometry width="50" height="50" relative="1" as="geometry">
            <mxPoint x="55" y="470" as="sourcePoint" />
            <mxPoint x="180" y="461" as="targetPoint" />
          </mxGeometry>
        </mxCell>
        <mxCell id="6iokY7xrfuskaPG3-T_G-20" value="" style="endArrow=classic;html=1;rounded=0;exitX=-0.133;exitY=0.982;exitDx=0;exitDy=0;exitPerimeter=0;dashed=1;" parent="6iokY7xrfuskaPG3-T_G-15" source="6iokY7xrfuskaPG3-T_G-24" edge="1">
          <mxGeometry width="50" height="50" relative="1" as="geometry">
            <mxPoint x="10" y="630" as="sourcePoint" />
            <mxPoint x="60" y="580" as="targetPoint" />
          </mxGeometry>
        </mxCell>
        <mxCell id="6iokY7xrfuskaPG3-T_G-21" value="&lt;font style=&quot;font-size: 15px;&quot;&gt;Leader Ranking Feature&lt;/font&gt;" style="text;html=1;align=center;verticalAlign=middle;whiteSpace=wrap;rounded=0;" parent="6iokY7xrfuskaPG3-T_G-15" vertex="1">
          <mxGeometry x="-95" y="357" width="210" height="30" as="geometry" />
        </mxCell>
        <mxCell id="6iokY7xrfuskaPG3-T_G-22" value="Sentiment Analyzer" style="shape=umlLifeline;perimeter=lifelinePerimeter;whiteSpace=wrap;html=1;container=1;collapsible=0;recursiveResize=0;outlineConnect=0;rounded=1;shadow=0;comic=0;labelBackgroundColor=none;strokeWidth=1;fontFamily=Verdana;fontSize=12;align=center;" parent="1" vertex="1">
          <mxGeometry x="30" y="190" width="110.00444444444429" height="580" as="geometry" />
        </mxCell>
        <mxCell id="6iokY7xrfuskaPG3-T_G-23" value="" style="html=1;points=[];perimeter=orthogonalPerimeter;rounded=0;shadow=0;comic=0;labelBackgroundColor=none;strokeWidth=1;fontFamily=Verdana;fontSize=12;align=center;" parent="6iokY7xrfuskaPG3-T_G-22" vertex="1">
          <mxGeometry x="45" y="191" width="10" height="119" as="geometry" />
        </mxCell>
        <mxCell id="6iokY7xrfuskaPG3-T_G-24" value="" style="html=1;points=[];perimeter=orthogonalPerimeter;rounded=0;shadow=0;comic=0;labelBackgroundColor=none;strokeWidth=1;fontFamily=Verdana;fontSize=12;align=center;" parent="6iokY7xrfuskaPG3-T_G-22" vertex="1">
          <mxGeometry x="45" y="461" width="10" height="119" as="geometry" />
        </mxCell>
        <mxCell id="6iokY7xrfuskaPG3-T_G-25" value="" style="endArrow=classic;html=1;rounded=0;" parent="6iokY7xrfuskaPG3-T_G-22" edge="1">
          <mxGeometry width="50" height="50" relative="1" as="geometry">
            <mxPoint x="60" y="480" as="sourcePoint" />
            <mxPoint x="181" y="480" as="targetPoint" />
            <Array as="points" />
          </mxGeometry>
        </mxCell>
        <mxCell id="6iokY7xrfuskaPG3-T_G-26" value="" style="endArrow=classic;html=1;rounded=0;dashed=1;" parent="6iokY7xrfuskaPG3-T_G-22" edge="1">
          <mxGeometry width="50" height="50" relative="1" as="geometry">
            <mxPoint x="180" y="540" as="sourcePoint" />
            <mxPoint x="60" y="540" as="targetPoint" />
          </mxGeometry>
        </mxCell>
        <mxCell id="6iokY7xrfuskaPG3-T_G-27" value="Database" style="shape=umlLifeline;perimeter=lifelinePerimeter;whiteSpace=wrap;html=1;container=1;collapsible=0;recursiveResize=0;outlineConnect=0;rounded=1;shadow=0;comic=0;labelBackgroundColor=none;strokeWidth=1;fontFamily=Verdana;fontSize=12;align=center;" parent="1" vertex="1">
          <mxGeometry x="170" y="190" width="100" height="580" as="geometry" />
        </mxCell>
        <mxCell id="6iokY7xrfuskaPG3-T_G-28" value="" style="html=1;verticalAlign=bottom;endArrow=block;labelBackgroundColor=none;fontFamily=Verdana;fontSize=12;edgeStyle=elbowEdgeStyle;elbow=vertical;" parent="6iokY7xrfuskaPG3-T_G-27" edge="1">
          <mxGeometry relative="1" as="geometry">
            <mxPoint x="-85" y="214.47000000000003" as="sourcePoint" />
            <mxPoint x="50" y="214" as="targetPoint" />
            <Array as="points">
              <mxPoint x="-40" y="214.47000000000003" />
            </Array>
          </mxGeometry>
        </mxCell>
        <mxCell id="6iokY7xrfuskaPG3-T_G-29" value="&lt;font style=&quot;font-size: 11px;&quot;&gt;Fetch twitter data&lt;/font&gt;" style="edgeLabel;html=1;align=center;verticalAlign=middle;resizable=0;points=[];" parent="6iokY7xrfuskaPG3-T_G-28" vertex="1" connectable="0">
          <mxGeometry x="-0.0491" y="3" relative="1" as="geometry">
            <mxPoint x="-1" y="-8" as="offset" />
          </mxGeometry>
        </mxCell>
        <mxCell id="6iokY7xrfuskaPG3-T_G-30" value="" style="rounded=0;whiteSpace=wrap;html=1;" parent="6iokY7xrfuskaPG3-T_G-27" vertex="1">
          <mxGeometry x="45" y="200" width="10" height="80" as="geometry" />
        </mxCell>
        <mxCell id="6iokY7xrfuskaPG3-T_G-31" value="" style="html=1;points=[];perimeter=orthogonalPerimeter;rounded=0;shadow=0;comic=0;labelBackgroundColor=none;strokeWidth=1;fontFamily=Verdana;fontSize=12;align=center;" parent="6iokY7xrfuskaPG3-T_G-27" vertex="1">
          <mxGeometry x="45" y="480" width="10" height="60" as="geometry" />
        </mxCell>
        <mxCell id="6iokY7xrfuskaPG3-T_G-32" value="" style="html=1;points=[];perimeter=orthogonalPerimeter;rounded=0;shadow=0;comic=0;labelBackgroundColor=none;strokeWidth=1;fontFamily=Verdana;fontSize=12;align=center;strokeColor=#330000;fillColor=#330000;" parent="1" vertex="1">
          <mxGeometry x="-505" y="230" width="10" height="620" as="geometry" />
        </mxCell>
        <mxCell id="6iokY7xrfuskaPG3-T_G-33" value="" style="shape=umlActor;verticalLabelPosition=bottom;verticalAlign=top;html=1;outlineConnect=0;" parent="1" vertex="1">
          <mxGeometry x="-515" y="190" width="30" height="50" as="geometry" />
        </mxCell>
        <mxCell id="6iokY7xrfuskaPG3-T_G-34" value="Election Prediction Feature" style="rounded=1;whiteSpace=wrap;html=1;" parent="1" vertex="1">
          <mxGeometry x="-330" y="250" width="460" height="20" as="geometry" />
        </mxCell>
        <mxCell id="6iokY7xrfuskaPG3-T_G-35" value="&lt;font style=&quot;font-size: 11px;&quot;&gt;Request Election&amp;nbsp;&lt;/font&gt;&lt;div&gt;&lt;font style=&quot;font-size: 11px;&quot;&gt;prediction&lt;/font&gt;&lt;/div&gt;" style="html=1;verticalAlign=bottom;endArrow=block;labelBackgroundColor=none;fontFamily=Verdana;fontSize=12;edgeStyle=elbowEdgeStyle;elbow=vertical;" parent="1" target="6iokY7xrfuskaPG3-T_G-4" edge="1">
          <mxGeometry relative="1" as="geometry">
            <mxPoint x="-495" y="320.14" as="sourcePoint" />
            <mxPoint x="-225" y="320.14" as="targetPoint" />
          </mxGeometry>
        </mxCell>
        <mxCell id="6iokY7xrfuskaPG3-T_G-36" value="Preprocessed Twitter&amp;nbsp;&lt;div&gt;Data&lt;/div&gt;" style="html=1;verticalAlign=bottom;endArrow=open;dashed=1;endSize=8;curved=0;rounded=0;" parent="1" source="6iokY7xrfuskaPG3-T_G-27" edge="1">
          <mxGeometry relative="1" as="geometry">
            <mxPoint x="221" y="451" as="sourcePoint" />
            <mxPoint x="83.75" y="451" as="targetPoint" />
          </mxGeometry>
        </mxCell>
        <mxCell id="6iokY7xrfuskaPG3-T_G-37" value="Prediction results" style="html=1;verticalAlign=bottom;endArrow=open;dashed=1;endSize=8;curved=0;rounded=0;" parent="1" edge="1">
          <mxGeometry relative="1" as="geometry">
            <mxPoint x="-206.5" y="499" as="sourcePoint" />
            <mxPoint x="-356" y="499" as="targetPoint" />
          </mxGeometry>
        </mxCell>
        <mxCell id="6iokY7xrfuskaPG3-T_G-38" value="" style="endArrow=classic;html=1;rounded=0;exitX=0;exitY=1;exitDx=0;exitDy=0;entryX=-0.311;entryY=0.012;entryDx=0;entryDy=0;entryPerimeter=0;" parent="1" source="6iokY7xrfuskaPG3-T_G-39" target="6iokY7xrfuskaPG3-T_G-9" edge="1">
          <mxGeometry width="50" height="50" relative="1" as="geometry">
            <mxPoint x="-490" y="610" as="sourcePoint" />
            <mxPoint x="-370" y="610" as="targetPoint" />
          </mxGeometry>
        </mxCell>
        <mxCell id="6iokY7xrfuskaPG3-T_G-39" value="View Leader Rankings" style="text;html=1;align=center;verticalAlign=middle;whiteSpace=wrap;rounded=0;" parent="1" vertex="1">
          <mxGeometry x="-495" y="570" width="120" height="30" as="geometry" />
        </mxCell>
        <mxCell id="6iokY7xrfuskaPG3-T_G-40" value="" style="endArrow=classic;html=1;rounded=0;dashed=1;" parent="1" edge="1">
          <mxGeometry width="50" height="50" relative="1" as="geometry">
            <mxPoint x="-370" y="830" as="sourcePoint" />
            <mxPoint x="-490" y="830" as="targetPoint" />
          </mxGeometry>
        </mxCell>
        <mxCell id="6iokY7xrfuskaPG3-T_G-41" value="Display Leader Dashboard" style="text;html=1;align=center;verticalAlign=middle;whiteSpace=wrap;rounded=0;" parent="1" vertex="1">
          <mxGeometry x="-490" y="800" width="120" height="30" as="geometry" />
        </mxCell>
        <mxCell id="6iokY7xrfuskaPG3-T_G-42" value="Get Leader Data" style="text;html=1;align=center;verticalAlign=middle;whiteSpace=wrap;rounded=0;" parent="1" vertex="1">
          <mxGeometry x="-340" y="600" width="250" height="30" as="geometry" />
        </mxCell>
        <mxCell id="6iokY7xrfuskaPG3-T_G-43" value="Leader Rankings" style="text;html=1;align=center;verticalAlign=middle;whiteSpace=wrap;rounded=0;" parent="1" vertex="1">
          <mxGeometry x="-325" y="771" width="250" height="30" as="geometry" />
        </mxCell>
        <mxCell id="6iokY7xrfuskaPG3-T_G-44" value="&lt;font style=&quot;font-size: 11px;&quot;&gt;Fetch twitter data&lt;/font&gt;" style="edgeLabel;html=1;align=center;verticalAlign=middle;resizable=0;points=[];" parent="1" vertex="1" connectable="0">
          <mxGeometry x="140.0044444444443" y="653" as="geometry">
            <mxPoint x="14" y="9" as="offset" />
          </mxGeometry>
        </mxCell>
        <mxCell id="6iokY7xrfuskaPG3-T_G-45" value="Preprocessed Twitter Data" style="text;html=1;align=center;verticalAlign=middle;whiteSpace=wrap;rounded=0;" parent="1" vertex="1">
          <mxGeometry x="90" y="700" width="120" height="30" as="geometry" />
        </mxCell>
        <mxCell id="6iokY7xrfuskaPG3-T_G-46" value="&lt;font style=&quot;font-size: 11px;&quot;&gt;Analyze sentiment&lt;/font&gt;" style="edgeLabel;html=1;align=center;verticalAlign=middle;resizable=0;points=[];" parent="1" vertex="1" connectable="0">
          <mxGeometry x="10.00333333333299" y="640" as="geometry">
            <mxPoint x="5" as="offset" />
          </mxGeometry>
        </mxCell>
        <mxCell id="6iokY7xrfuskaPG3-T_G-47" value="Analysis Results" style="text;html=1;align=center;verticalAlign=middle;whiteSpace=wrap;rounded=0;" parent="1" vertex="1">
          <mxGeometry x="-50" y="741" width="120" height="30" as="geometry" />
        </mxCell>
        <mxCell id="6iokY7xrfuskaPG3-T_G-48" value="Text" style="text;html=1;align=center;verticalAlign=middle;whiteSpace=wrap;rounded=0;" parent="1" vertex="1">
          <mxGeometry x="30" y="400" width="60" height="30" as="geometry" />
        </mxCell>
        <mxCell id="6iokY7xrfuskaPG3-T_G-49" value="User" style="text;html=1;align=center;verticalAlign=middle;whiteSpace=wrap;rounded=0;" parent="1" vertex="1">
          <mxGeometry x="-530" y="160" width="60" height="40" as="geometry" />
        </mxCell>
        <mxCell id="6iokY7xrfuskaPG3-T_G-50" value="&lt;font style=&quot;font-size: 45px;&quot;&gt;Sequence Diagram&lt;/font&gt;" style="text;html=1;align=center;verticalAlign=middle;whiteSpace=wrap;rounded=0;" parent="1" vertex="1">
          <mxGeometry x="-395" y="100" width="480" height="30" as="geometry" />
        </mxCell>
      </root>
    </mxGraphModel>
  </diagram>
</mxfile>
